<?xml version="1.0" encoding="utf-8"?>
<!-- Generator: Adobe Illustrator 17.0.0, SVG Export Plug-In . SVG Version: 6.00 Build 0)  -->
<!DOCTYPE svg PUBLIC "-//W3C//DTD SVG 1.1//EN" "http://www.w3.org/Graphics/SVG/1.1/DTD/svg11.dtd">
<svg version="1.1" id="icon" xmlns="http://www.w3.org/2000/svg" xmlns:xlink="http://www.w3.org/1999/xlink" x="0px" y="0px"
	 width="128px" height="128px" viewBox="0 0 128 128" enable-background="new 0 0 128 128" xml:space="preserve">
<g>
	<path d="M66.562,96.967c-19.575,0-35.5-15.925-35.5-35.5s15.925-35.5,35.5-35.5s35.5,15.925,35.5,35.5S86.137,96.967,66.562,96.967
		z M66.562,31.968c-16.266,0-29.5,13.233-29.5,29.5s13.234,29.5,29.5,29.5s29.5-13.233,29.5-29.5S82.829,31.968,66.562,31.968z"/>
	<path d="M77.082,21.968c-0.007-0.001-0.013-0.001-0.02,0h-21c-1.156,0-2.208-0.664-2.707-1.707
		c-0.498-1.043-0.353-2.279,0.373-3.178l10.5-13c0.57-0.705,1.428-1.115,2.334-1.115c0.906,0,1.764,0.41,2.334,1.115l10.316,12.773
		c0.538,0.542,0.87,1.288,0.87,2.112C80.082,20.625,78.739,21.968,77.082,21.968z M62.342,15.967h8.441l-4.221-5.226L62.342,15.967z
		"/>
	<path d="M30.762,38.456c-0.421,0-0.844-0.089-1.242-0.27c-1.052-0.479-1.736-1.519-1.757-2.674L27.45,18.804
		c-0.017-0.906,0.377-1.772,1.071-2.354c0.694-0.583,1.616-0.818,2.504-0.646l16.4,3.209c1.134,0.222,2.04,1.076,2.329,2.195
		c0.289,1.119-0.091,2.305-0.977,3.047L32.69,37.754C32.14,38.215,31.455,38.456,30.762,38.456z M33.518,22.405l0.126,6.716
		l6.466-5.426L33.518,22.405z"/>
	<path d="M21.979,67.348c-0.854,0-1.684-0.365-2.262-1.029L8.738,53.721c-0.595-0.683-0.85-1.599-0.693-2.491
		c0.158-0.894,0.71-1.667,1.503-2.106l14.626-8.083c1.012-0.559,2.254-0.487,3.195,0.185c0.941,0.672,1.412,1.824,1.211,2.962
		l-3.646,20.681c-0.201,1.139-1.038,2.061-2.151,2.37C22.518,67.312,22.247,67.348,21.979,67.348z M15.702,52.58l4.413,5.063
		l1.466-8.313L15.702,52.58z"/>
	<path d="M33.824,95.128c-0.154,0-0.31-0.012-0.466-0.036L16.85,92.499c-0.896-0.141-1.68-0.679-2.133-1.464
		c-0.453-0.785-0.527-1.732-0.201-2.578l6.008-15.594c0.416-1.079,1.414-1.823,2.566-1.913c1.149-0.092,2.253,0.49,2.832,1.491
		l10.343,17.915c0.364,0.496,0.579,1.108,0.579,1.771c0,1.655-1.341,2.998-2.996,3C33.839,95.128,33.831,95.128,33.824,95.128z
		 M21.45,87.147l6.636,1.043l-4.221-7.311L21.45,87.147z"/>
	<path d="M46.439,117.42c-0.346,0-0.693-0.06-1.026-0.181c-0.852-0.311-1.518-0.989-1.812-1.847l-5.42-15.808
		c-0.375-1.093-0.088-2.305,0.736-3.113c0.825-0.811,2.042-1.072,3.127-0.679l19.733,7.183c1.086,0.395,1.849,1.38,1.96,2.53
		c0.112,1.15-0.448,2.262-1.438,2.858l-14.313,8.625C47.515,117.274,46.978,117.42,46.439,117.42z M45.894,103.579l2.179,6.354
		l5.753-3.467L45.894,103.579z"/>
	<path d="M84.746,117.761c-0.539,0-1.075-0.146-1.548-0.431l-14.313-8.625c-0.99-0.597-1.549-1.708-1.438-2.858
		c0.111-1.15,0.873-2.135,1.96-2.53l19.733-7.183c1.087-0.393,2.303-0.131,3.128,0.678c0.825,0.81,1.111,2.021,0.736,3.114
		l-5.42,15.808c-0.294,0.857-0.96,1.536-1.812,1.847C85.439,117.702,85.092,117.761,84.746,117.761z M77.359,106.807l5.753,3.468
		l2.179-6.354L77.359,106.807z"/>
	<path d="M97.801,95.994c-0.979,0-1.908-0.479-2.473-1.303c-0.654-0.952-0.702-2.196-0.125-3.197l10.5-18.187
		c0.578-1.001,1.676-1.579,2.832-1.491c1.152,0.09,2.15,0.834,2.566,1.912l6.009,15.593c0.326,0.846,0.252,1.794-0.201,2.579
		c-0.453,0.785-1.237,1.323-2.132,1.464l-16.509,2.594C98.112,95.982,97.956,95.994,97.801,95.994z M107.76,81.745l-4.221,7.311
		l6.636-1.042L107.76,81.745z"/>
	<path d="M110.319,68.334c-0.268,0-0.538-0.036-0.804-0.109c-1.113-0.309-1.95-1.231-2.151-2.37l-3.646-20.681
		c-0.201-1.138,0.271-2.29,1.211-2.962c0.939-0.67,2.182-0.743,3.195-0.185l14.626,8.082c0.793,0.438,1.346,1.212,1.503,2.104
		c0.157,0.894-0.097,1.81-0.693,2.492l-10.979,12.599C112.003,67.968,111.173,68.334,110.319,68.334z M110.718,50.315l1.465,8.313
		l4.414-5.064L110.718,50.315z"/>
	<path d="M102.129,39.098c-0.693,0-1.378-0.239-1.929-0.702L84.114,24.897c-0.886-0.742-1.265-1.928-0.977-3.047
		c0.289-1.119,1.194-1.974,2.329-2.195l16.399-3.209c0.888-0.172,1.81,0.063,2.504,0.647c0.694,0.582,1.088,1.447,1.071,2.353
		l-0.313,16.708c-0.021,1.156-0.705,2.196-1.757,2.675C102.974,39.009,102.55,39.098,102.129,39.098z M92.781,24.338l6.466,5.426
		l0.125-6.716L92.781,24.338z"/>
	<path d="M66.562,96.967c-19.575,0-35.5-15.925-35.5-35.5s15.925-35.5,35.5-35.5s35.5,15.925,35.5,35.5S86.137,96.967,66.562,96.967
		z M66.562,31.968c-16.266,0-29.5,13.233-29.5,29.5s13.234,29.5,29.5,29.5s29.5-13.233,29.5-29.5S82.829,31.968,66.562,31.968z"/>
</g>
</svg>
